<svg width="64" height="64" viewBox="0 0 64 64" fill="none" xmlns="http://www.w3.org/2000/svg">
<path d="M0 16C0 7.16344 7.16344 0 16 0H48C56.8366 0 64 7.16344 64 16V48C64 56.8366 56.8366 64 48 64H16C7.16344 64 0 56.8366 0 48V16Z" fill="#030213"/>
<path d="M41.3333 30.6667H22.6667C21.1939 30.6667 20 31.8606 20 33.3334V42.6667C20 44.1394 21.1939 45.3334 22.6667 45.3334H41.3333C42.8061 45.3334 44 44.1394 44 42.6667V33.3334C44 31.8606 42.8061 30.6667 41.3333 30.6667Z" stroke="white" stroke-width="2.66667" stroke-linecap="round" stroke-linejoin="round"/>
<path d="M25.3333 30.6667V25.3334C25.3333 23.5652 26.0357 21.8696 27.2859 20.6193C28.5362 19.3691 30.2319 18.6667 32 18.6667C33.7681 18.6667 35.4638 19.3691 36.714 20.6193C37.9643 21.8696 38.6667 23.5652 38.6667 25.3334V30.6667" stroke="white" stroke-width="2.66667" stroke-linecap="round" stroke-linejoin="round"/>
</svg>
